<?xml version="1.0" encoding="UTF-8" standalone="no"?><!-- Generator: Gravit.io --><svg xmlns="http://www.w3.org/2000/svg" xmlns:xlink="http://www.w3.org/1999/xlink" style="isolation:isolate" viewBox="0 0 474.506 107.758" width="474.506pt" height="107.758pt"><defs><clipPath id="_clipPath_9S2FemUsxp8qFuz96WGKoo8BIlzTidmg"><rect width="474.506" height="107.758"/></clipPath></defs><g clip-path="url(#_clipPath_9S2FemUsxp8qFuz96WGKoo8BIlzTidmg)"><g><path d=" M 94.827 52.85 C 98.672 53.942 100.802 57.422 100.802 61.788 C 100.802 68.594 96.645 71.763 90.982 71.763 L 78.044 71.763 L 78.044 35.393 L 89.474 35.393 C 95.033 35.393 99.346 38.042 99.346 44.954 C 99.347 48.434 97.892 51.656 94.827 52.85 Z  M 89.527 51.967 C 93.632 51.967 96.957 50.512 96.957 44.901 C 96.957 39.239 93.528 37.731 89.371 37.731 L 80.487 37.731 L 80.487 51.967 L 89.527 51.967 L 89.527 51.967 Z  M 90.826 69.373 C 94.982 69.373 98.307 67.19 98.307 61.788 C 98.307 55.968 94.514 54.202 89.787 54.202 L 80.487 54.202 L 80.487 69.373 L 90.826 69.373 L 90.826 69.373 Z " fill="rgb(30,83,68)"/><path d=" M 125.119 35.393 L 125.119 37.627 L 115.092 37.627 L 115.092 71.762 L 112.648 71.762 L 112.648 37.627 L 102.622 37.627 L 102.622 35.393 L 125.119 35.393 Z " fill="rgb(30,83,68)"/><path d=" M 142.212 34.874 C 148.395 34.874 154.006 37.991 155.774 45.421 L 153.436 45.421 C 151.774 39.343 146.889 37.109 142.161 37.109 C 133.589 37.109 129.068 44.123 129.068 53.58 C 129.068 63.556 133.589 69.945 142.213 69.945 C 147.305 69.945 151.877 67.66 153.644 60.957 L 155.982 60.957 C 154.423 68.699 148.293 72.283 142.213 72.283 C 132.497 72.283 126.679 65.113 126.679 53.58 C 126.678 42.511 132.809 34.874 142.212 34.874 Z " fill="rgb(30,83,68)"/><path d=" M 174.271 35.393 C 180.556 35.393 185.128 39.498 185.128 47.448 C 185.128 54.929 180.556 59.45 174.271 59.45 L 164.709 59.45 L 164.709 71.763 L 162.32 71.763 L 162.32 35.393 L 174.271 35.393 L 174.271 35.393 Z  M 174.271 57.059 C 178.894 57.059 182.687 54.098 182.687 47.395 C 182.687 40.694 179.048 37.68 174.271 37.68 L 164.709 37.68 L 164.709 57.059 L 174.271 57.059 L 174.271 57.059 Z " fill="rgb(30,83,68)"/><path d=" M 185.545 71.763 L 185.545 71.451 L 200.041 35.289 L 201.133 35.289 L 215.473 71.451 L 215.473 71.763 L 212.926 71.763 L 208.822 61.268 L 192.248 61.268 L 188.144 71.763 L 185.545 71.763 L 185.545 71.763 Z  M 200.562 39.602 L 193.08 58.981 L 207.992 58.981 L 200.562 39.602 L 200.562 39.602 Z " fill="rgb(30,83,68)"/><path d=" M 237.038 35.393 L 239.635 35.393 L 239.635 35.756 L 228.309 56.643 L 228.309 71.762 L 225.814 71.762 L 225.814 56.643 L 214.436 35.706 L 214.436 35.393 L 217.086 35.393 L 222.021 44.641 L 227.01 54.253 L 227.061 54.253 L 232.1 44.641 L 237.038 35.393 Z " fill="rgb(30,83,68)"/></g><g><path d=" M 253.63 57.871 Q 253.63 52.182 256.087 48.906 Q 258.544 45.63 262.949 45.63 Q 266.159 45.63 268.35 48.154 L 268.35 36.024 L 275.832 36.024 L 275.832 70.023 L 269.125 70.023 L 268.749 67.456 Q 266.447 70.466 262.905 70.466 Q 258.633 70.466 256.131 67.19 Q 253.63 63.914 253.63 57.871 Z  M 261.09 58.336 Q 261.09 64.711 264.809 64.711 Q 267.288 64.711 268.35 62.63 L 268.35 53.51 Q 267.332 51.385 264.853 51.385 Q 261.4 51.385 261.112 56.964 L 261.09 58.336 Z " fill="rgb(30,83,68)"/><path d=" M 287.94 70.023 L 280.458 70.023 L 280.458 46.073 L 287.94 46.073 L 287.94 70.023 Z  M 280.016 39.897 Q 280.016 38.303 281.167 37.285 Q 282.318 36.267 284.155 36.267 Q 285.992 36.267 287.143 37.285 Q 288.294 38.303 288.294 39.897 Q 288.294 41.491 287.143 42.509 Q 285.992 43.527 284.155 43.527 Q 282.318 43.527 281.167 42.509 Q 280.016 41.491 280.016 39.897 Z " fill="rgb(30,83,68)"/><path d=" M 307.043 52.824 L 304.586 52.647 Q 301.066 52.647 300.07 54.861 L 300.07 70.023 L 292.611 70.023 L 292.611 46.073 L 299.605 46.073 L 299.849 49.15 Q 301.73 45.63 305.095 45.63 Q 306.29 45.63 307.176 45.896 L 307.043 52.824 Z " fill="rgb(30,83,68)"/><path d=" M 320.877 70.466 Q 315.366 70.466 311.957 67.19 Q 308.548 63.892 308.548 58.624 L 308.548 58.004 Q 308.548 54.329 309.898 51.518 Q 311.271 48.707 313.883 47.18 Q 316.495 45.63 320.081 45.63 Q 325.127 45.63 328.049 48.774 Q 330.971 51.895 330.971 57.495 L 330.971 60.395 L 316.14 60.395 Q 316.539 62.409 317.889 63.56 Q 319.239 64.711 321.387 64.711 Q 324.928 64.711 326.92 62.232 L 330.329 66.26 Q 328.935 68.186 326.367 69.337 Q 323.821 70.466 320.877 70.466 L 320.877 70.466 Z  M 320.036 51.385 Q 316.76 51.385 316.14 55.724 L 323.667 55.724 L 323.667 55.149 Q 323.711 53.356 322.759 52.382 Q 321.807 51.385 320.036 51.385 Z " fill="rgb(30,83,68)"/><path d=" M 344.12 64.711 Q 345.691 64.711 346.555 63.87 Q 347.418 63.007 347.396 61.479 L 354.39 61.479 Q 354.39 65.419 351.557 67.943 Q 348.746 70.466 344.297 70.466 Q 339.073 70.466 336.062 67.19 Q 333.052 63.914 333.052 58.115 L 333.052 57.805 Q 333.052 54.175 334.38 51.408 Q 335.73 48.619 338.254 47.135 Q 340.777 45.63 344.23 45.63 Q 348.901 45.63 351.646 48.22 Q 354.39 50.81 354.39 55.237 L 347.396 55.237 Q 347.396 53.378 346.488 52.382 Q 345.581 51.385 344.053 51.385 Q 341.154 51.385 340.667 55.082 Q 340.512 56.255 340.512 58.314 Q 340.512 61.922 341.375 63.316 Q 342.238 64.711 344.12 64.711 L 344.12 64.711 Z " fill="rgb(30,83,68)"/><path d=" M 366.233 40.119 L 366.233 46.073 L 370.173 46.073 L 370.173 51.253 L 366.233 51.253 L 366.233 62.21 Q 366.233 63.56 366.72 64.091 Q 367.207 64.622 368.646 64.622 Q 369.752 64.622 370.505 64.49 L 370.505 69.824 Q 368.491 70.466 366.299 70.466 Q 362.448 70.466 360.611 68.651 Q 358.773 66.836 358.773 63.139 L 358.773 51.253 L 355.719 51.253 L 355.719 46.073 L 358.773 46.073 L 358.773 40.119 L 366.233 40.119 Z " fill="rgb(30,83,68)"/><path d=" M 371.568 57.827 Q 371.568 54.241 372.962 51.452 Q 374.357 48.641 376.969 47.135 Q 379.581 45.63 383.1 45.63 Q 388.479 45.63 391.578 48.973 Q 394.677 52.293 394.677 58.026 L 394.677 58.292 Q 394.677 63.892 391.556 67.19 Q 388.457 70.466 383.144 70.466 Q 378.031 70.466 374.932 67.412 Q 371.833 64.335 371.59 59.089 L 371.568 57.827 Z  M 379.027 58.292 Q 379.027 61.612 380.068 63.162 Q 381.108 64.711 383.144 64.711 Q 387.129 64.711 387.217 58.579 L 387.217 57.827 Q 387.217 51.385 383.1 51.385 Q 379.359 51.385 379.049 56.941 L 379.027 58.292 Z " fill="rgb(30,83,68)"/><path d=" M 412.496 52.824 L 410.039 52.647 Q 406.519 52.647 405.523 54.861 L 405.523 70.023 L 398.064 70.023 L 398.064 46.073 L 405.058 46.073 L 405.302 49.15 Q 407.183 45.63 410.548 45.63 Q 411.743 45.63 412.629 45.896 L 412.496 52.824 Z " fill="rgb(30,83,68)"/><path d=" M 425.202 59.576 L 429.186 46.073 L 437.177 46.073 L 427.415 74.03 L 426.995 75.048 Q 424.914 79.697 419.646 79.697 Q 418.185 79.697 416.569 79.254 L 416.569 73.919 L 417.543 73.919 Q 419.114 73.919 419.933 73.454 Q 420.775 73.012 421.173 71.839 L 421.771 70.245 L 413.448 46.073 L 421.416 46.073 L 425.202 59.576 Z " fill="rgb(30,83,68)"/></g><g><path d=" M 9.525 104.7 C 6.228 104.682 3.565 102.004 3.565 98.707 L 3.565 8.573 C 3.5 6.39 4.627 4.344 6.507 3.233 C 8.387 2.122 10.723 2.122 12.603 3.233 C 14.484 4.344 15.611 6.39 15.545 8.573 L 15.545 98.707 C 15.545 100.301 14.91 101.83 13.78 102.954 C 12.651 104.079 11.119 104.707 9.525 104.7 L 9.525 104.7 Z " fill="rgb(206,220,33)"/><path d=" M 9.531 104.7 C 6.751 104.675 4.353 102.741 3.739 100.03 C 3.126 97.318 4.458 94.54 6.957 93.321 L 43.076 76.178 L 5.976 48.826 C 3.313 46.864 2.744 43.115 4.706 40.452 C 6.667 37.788 10.417 37.22 13.08 39.181 L 58.242 72.455 C 59.953 73.696 60.879 75.749 60.676 77.852 C 60.473 79.956 59.172 81.794 57.256 82.685 L 12.105 104.12 C 11.301 104.504 10.421 104.702 9.531 104.7 Z " fill="rgb(81,177,62)"/><path d=" M 9.531 69.269 C 6.927 69.288 4.61 67.622 3.799 65.148 C 2.987 62.674 3.868 59.96 5.976 58.433 L 43.076 31.097 L 6.957 13.98 C 3.965 12.562 2.689 8.986 4.107 5.994 C 5.526 3.001 9.101 1.725 12.094 3.144 L 57.256 24.579 C 59.161 25.48 60.452 27.318 60.654 29.416 C 60.857 31.515 59.94 33.565 58.242 34.814 L 13.08 68.104 C 12.052 68.863 10.808 69.271 9.531 69.269 L 9.531 69.269 Z " fill="rgb(206,220,33)"/><path d=" M 15.518 40.975 L 15.518 66.305 L 32.7 53.648 L 15.518 40.975 L 15.518 40.975 Z " fill="rgb(30,122,68)"/><path d=" M 3.538 30.355 L 15.518 30.355 L 15.518 59.554 L 3.538 59.554 L 3.538 30.355 Z " fill="rgb(255,255,255)"/><path d=" M 15.518 8.573 C 15.584 6.39 14.457 4.344 12.576 3.233 C 10.696 2.122 8.36 2.122 6.48 3.233 C 4.6 4.344 3.472 6.39 3.538 8.573 L 3.538 83.937 L 15.518 83.937 L 15.518 8.573 Z " fill="rgb(206,220,33)"/></g></g></svg>