<?xml version="1.0" encoding="UTF-8" standalone="no"?>
<svg
   xmlns:dc="http://purl.org/dc/elements/1.1/"
   xmlns:cc="http://creativecommons.org/ns#"
   xmlns:rdf="http://www.w3.org/1999/02/22-rdf-syntax-ns#"
   xmlns:svg="http://www.w3.org/2000/svg"
   xmlns="http://www.w3.org/2000/svg"
   version="1.1"
   id="logoimage"
   x="0px"
   y="0px"
   width="474.506px"
   height="107.758px"
   viewBox="0 0 474.506 107.758"
   enable-background="new 0 0 474.506 107.758"
   xml:space="preserve"><metadata
   id="metadata150"><rdf:RDF><cc:Work
       rdf:about=""><dc:format>image/svg+xml</dc:format><dc:type
         rdf:resource="http://purl.org/dc/dcmitype/StillImage" /><dc:title></dc:title></cc:Work></rdf:RDF></metadata><defs
   id="defs148" />
              
              <g
   id="logo">
                <path
   fill="#cedc21"
   d="M9.461,104.726c-3.313,0-6-2.687-6-6V8.43c0-3.313,2.687-6,6-6s6,2.687,6,6v90.296           C15.461,102.04,12.774,104.726,9.461,104.726"
   id="path119" />
                <path
   fill="#51b13e"
   d="M9.465,104.727c-2.245,0-4.397-1.266-5.425-3.429c-1.42-2.993-0.145-6.571,2.849-7.993l36.18-17.17           L5.902,48.752c-2.667-1.965-3.237-5.721-1.271-8.389c1.965-2.668,5.723-3.238,8.389-1.272l45.242,33.332           c1.699,1.253,2.616,3.304,2.414,5.406c-0.202,2.101-1.493,3.94-3.4,4.845l-45.243,21.473           C11.204,104.541,10.327,104.727,9.465,104.727"
   id="path121" />
                <path
   fill="#cedc21"
   d="M9.466,69.235c-1.842,0-3.659-0.846-4.835-2.441c-1.966-2.668-1.396-6.425,1.272-8.391l37.166-27.381           L6.889,13.851c-2.994-1.422-4.269-5-2.849-7.994c1.422-2.994,5.001-4.269,7.993-2.848l45.243,21.472           c1.907,0.905,3.198,2.746,3.4,4.847s-0.715,4.153-2.414,5.405L13.02,68.065C11.948,68.854,10.701,69.235,9.466,69.235"
   id="path123" />
                <polygon
   fill="#1e5344"
   points="15.461,40.891 15.461,66.266 32.675,53.583  "
   id="polygon125" />
                <rect
   x="3.461"
   y="30.251"
   fill="var(--white)"
   width="12"
   height="29.25"
   id="rect127" />
                <path
   fill="#cedc21"
   d="M15.461,8.43c0-3.313-2.687-6-6-6s-6,2.687-6,6v75.512h12V8.43z"
   id="path129" />
              </g>
              <g
   id="btcpay_text">
                <path
   fill="#1e5344"
   d="M94.827,52.85c3.845,1.092,5.975,4.572,5.975,8.938c0,6.806-4.157,9.975-9.82,9.975H78.044V35.393h11.43           c5.559,0,9.872,2.649,9.872,9.561C99.347,48.434,97.892,51.656,94.827,52.85 M89.527,51.967c4.105,0,7.43-1.455,7.43-7.066           c0-5.662-3.429-7.17-7.586-7.17h-8.884v14.236H89.527z M90.826,69.373c4.156,0,7.481-2.183,7.481-7.585           c0-5.82-3.793-7.586-8.52-7.586h-9.3v15.171H90.826z"
   id="path132" />
                <polygon
   fill="#1e5344"
   points="125.119,35.393 125.119,37.627 115.092,37.627 115.092,71.762 112.648,71.762 112.648,37.627            102.622,37.627 102.622,35.393  "
   id="polygon134" />
                <path
   fill="#1e5344"
   d="M142.212,34.874c6.183,0,11.794,3.117,13.562,10.547h-2.338c-1.662-6.078-6.547-8.312-11.275-8.312           c-8.572,0-13.093,7.014-13.093,16.471c0,9.976,4.521,16.365,13.145,16.365c5.092,0,9.664-2.285,11.431-8.988h2.338           c-1.559,7.742-7.689,11.326-13.769,11.326c-9.716,0-15.534-7.17-15.534-18.703C126.678,42.511,132.809,34.874,142.212,34.874"
   id="path136" />
                <path
   fill="#1e5344"
   d="M174.271,35.393c6.285,0,10.857,4.105,10.857,12.055c0,7.481-4.572,12.002-10.857,12.002h-9.562v12.313           h-2.389v-36.37H174.271z M174.271,57.059c4.623,0,8.416-2.961,8.416-9.664c0-6.701-3.639-9.715-8.416-9.715h-9.562v19.379H174.271z           "
   id="path138" />
                <path
   fill="#1e5344"
   d="M185.545,71.763v-0.312l14.496-36.162h1.092l14.34,36.162v0.312h-2.547l-4.104-10.495h-16.574           l-4.104,10.495H185.545z M200.562,39.602l-7.482,19.379h14.912L200.562,39.602z"
   id="path140" />
                <polygon
   fill="#1e5344"
   points="237.038,35.393 239.635,35.393 239.635,35.756 228.309,56.643 228.309,71.762 225.814,71.762            225.814,56.643 214.436,35.706 214.436,35.393 217.086,35.393 222.021,44.641 227.01,54.253 227.061,54.253 232.1,44.641  "
   id="polygon142" />
              </g>
            <g
   style="font-weight:900;font-size:45.3333px;line-height:1.25;font-family:Roboto;-inkscape-font-specification:'Roboto Heavy'"
   id="text154"
   aria-label="directory"><path
     id="path124"
     style="font-style:normal;font-variant:normal;font-weight:900;font-stretch:normal;font-family:Roboto;-inkscape-font-specification:'Roboto Heavy';fill:#1e5344;fill-opacity:1"
     d="m 253.63012,57.871156 q 0,-5.688798 2.45703,-8.964838 2.45703,-3.276039 6.86197,-3.276039 3.20964,0 5.40104,2.523436 v -12.1302 h 7.48177 v 33.999976 h -6.70703 l -0.3763,-2.567707 q -2.30208,3.010415 -5.84375,3.010415 -4.27213,0 -6.77343,-3.276039 -2.5013,-3.27604 -2.5013,-9.319004 z m 7.45963,0.464843 q 0,6.374996 3.71875,6.374996 2.47916,0 3.54166,-2.080728 v -9.119785 q -1.01823,-2.124999 -3.49739,-2.124999 -3.45312,0 -3.74088,5.578121 z" /><path
     id="path126"
     style="font-style:normal;font-variant:normal;font-weight:900;font-stretch:normal;font-family:Roboto;-inkscape-font-specification:'Roboto Heavy';fill:#1e5344;fill-opacity:1"
     d="m 287.93999,70.023491 h -7.48176 V 46.072987 h 7.48176 z M 280.01552,39.89721 q 0,-1.593749 1.15104,-2.611977 1.15104,-1.018229 2.98828,-1.018229 1.83724,0 2.98828,1.018229 1.15104,1.018228 1.15104,2.611977 0,1.593749 -1.15104,2.611977 -1.15104,1.018229 -2.98828,1.018229 -1.83724,0 -2.98828,-1.018229 -1.15104,-1.018228 -1.15104,-2.611977 z" /><path
     id="path128"
     style="font-style:normal;font-variant:normal;font-weight:900;font-stretch:normal;font-family:Roboto;-inkscape-font-specification:'Roboto Heavy';fill:#1e5344;fill-opacity:1"
     d="m 307.04284,52.824284 -2.45703,-0.177083 q -3.51952,0 -4.51562,2.21354 v 15.16275 h -7.45963 V 46.072987 h 6.99479 l 0.24349,3.076821 q 1.88151,-3.519529 5.24609,-3.519529 1.19531,0 2.08073,0.265625 z" /><path
     id="path130"
     style="font-style:normal;font-variant:normal;font-weight:900;font-stretch:normal;font-family:Roboto;-inkscape-font-specification:'Roboto Heavy';fill:#1e5344;fill-opacity:1"
     d="m 320.87747,70.466199 q -5.51171,0 -8.92057,-3.276039 -3.40885,-3.298175 -3.40885,-8.566401 v -0.619791 q 0,-3.674477 1.35026,-6.485672 1.3724,-2.811196 3.98437,-4.338539 2.61198,-1.549478 6.19792,-1.549478 5.04687,0 7.96874,3.143227 2.92187,3.121091 2.92187,8.721348 v 2.899737 h -14.83072 q 0.39844,2.014322 1.7487,3.165363 1.35026,1.151041 3.49739,1.151041 3.54167,0 5.53385,-2.479165 l 3.40886,4.028643 q -1.39453,1.92578 -3.96224,3.07682 -2.54557,1.128906 -5.48958,1.128906 z m -0.84115,-19.080716 q -3.27603,0 -3.89583,4.338539 h 7.52604 v -0.575521 q 0.0443,-1.792967 -0.90755,-2.766925 -0.95182,-0.996093 -2.72266,-0.996093 z" /><path
     id="path133"
     style="font-style:normal;font-variant:normal;font-weight:900;font-stretch:normal;font-family:Roboto;-inkscape-font-specification:'Roboto Heavy';fill:#1e5344;fill-opacity:1"
     d="m 344.11964,64.710995 q 1.57162,0 2.4349,-0.841146 0.86328,-0.86328 0.84114,-2.390623 h 6.99479 q 0,3.940101 -2.83333,6.463537 -2.8112,2.523436 -7.26041,2.523436 -5.22396,0 -8.23437,-3.276039 -3.01042,-3.27604 -3.01042,-9.075515 v -0.309896 q 0,-3.630205 1.32813,-6.39713 1.35026,-2.789061 3.87369,-4.272133 2.52344,-1.505207 5.97656,-1.505207 4.67057,0 7.41536,2.589842 2.74479,2.589842 2.74479,7.016922 h -6.99479 q 0,-1.859374 -0.90755,-2.855467 -0.90755,-0.996093 -2.43489,-0.996093 -2.89974,0 -3.38672,3.696612 -0.15495,1.173176 -0.15495,3.231769 0,3.60807 0.86328,5.0026 0.86328,1.394531 2.74479,1.394531 z" /><path
     id="path135"
     style="font-style:normal;font-variant:normal;font-weight:900;font-stretch:normal;font-family:Roboto;-inkscape-font-specification:'Roboto Heavy';fill:#1e5344;fill-opacity:1"
     d="m 366.23291,40.118564 v 5.954423 h 3.9401 v 5.179684 h -3.9401 v 10.957023 q 0,1.35026 0.48697,1.881509 0.48698,0.53125 1.92578,0.53125 1.10677,0 1.85938,-0.132812 v 5.334631 q -2.01432,0.641927 -4.20573,0.641927 -3.85156,0 -5.6888,-1.815103 -1.83724,-1.815103 -1.83724,-5.511715 v -11.88671 h -3.05468 v -5.179684 h 3.05468 v -5.954423 z" /><path
     id="path137"
     style="font-style:normal;font-variant:normal;font-weight:900;font-stretch:normal;font-family:Roboto;-inkscape-font-specification:'Roboto Heavy';fill:#1e5344;fill-opacity:1"
     d="m 371.56754,57.826885 q 0,-3.585935 1.39453,-6.374996 1.39453,-2.811196 4.00651,-4.316403 2.61197,-1.505207 6.1315,-1.505207 5.3789,0 8.47786,3.342445 3.09896,3.320311 3.09896,9.053379 v 0.265625 q 0,5.600257 -3.1211,8.898432 -3.09895,3.276039 -8.41145,3.276039 -5.11328,0 -8.21223,-3.054685 -3.09896,-3.076821 -3.34245,-8.322911 z m 7.45963,0.464843 q 0,3.32031 1.04036,4.869789 1.04037,1.549478 3.07682,1.549478 3.98437,0 4.07292,-6.131506 v -0.752604 q 0,-6.441402 -4.11719,-6.441402 -3.74088,0 -4.05078,5.555986 z" /><path
     id="path139"
     style="font-style:normal;font-variant:normal;font-weight:900;font-stretch:normal;font-family:Roboto;-inkscape-font-specification:'Roboto Heavy';fill:#1e5344;fill-opacity:1"
     d="m 412.4959,52.824284 -2.45703,-0.177083 q -3.51952,0 -4.51562,2.21354 v 15.16275 h -7.45963 V 46.072987 h 6.99479 l 0.24349,3.076821 q 1.88151,-3.519529 5.24609,-3.519529 1.19531,0 2.08073,0.265625 z" /><path
     id="path141"
     style="font-style:normal;font-variant:normal;font-weight:900;font-stretch:normal;font-family:Roboto;-inkscape-font-specification:'Roboto Heavy';fill:#1e5344;fill-opacity:1"
     d="m 425.20161,59.575582 3.98437,-13.502595 h 7.99088 l -9.76171,27.957012 -0.42057,1.018228 q -2.08073,4.648434 -7.34895,4.648434 -1.46094,0 -3.07683,-0.442708 v -5.334631 h 0.97396 q 1.57162,0 2.39063,-0.464844 0.84114,-0.442708 1.23958,-1.615884 l 0.59765,-1.593749 -8.32291,-24.171858 h 7.96875 z" /></g></svg>
