<?xml version="1.0" encoding="UTF-8" standalone="no"?>
<svg
   xmlns:dc="http://purl.org/dc/elements/1.1/"
   xmlns:cc="http://creativecommons.org/ns#"
   xmlns:rdf="http://www.w3.org/1999/02/22-rdf-syntax-ns#"
   xmlns:svg="http://www.w3.org/2000/svg"
   xmlns="http://www.w3.org/2000/svg"
   version="1.1"
   id="logoimage"
   x="0px"
   y="0px"
   width="474.506px"
   height="107.758px"
   viewBox="0 0 474.506 107.758"
   enable-background="new 0 0 474.506 107.758"
   xml:space="preserve"><metadata
   id="metadata150"><rdf:RDF><cc:Work
       rdf:about=""><dc:format>image/svg+xml</dc:format><dc:type
         rdf:resource="http://purl.org/dc/dcmitype/StillImage" /><dc:title></dc:title></cc:Work></rdf:RDF></metadata><defs
   id="defs148" />
              
              <g
   id="logo">
                <path
   fill="#cedc21"
   d="M9.461,104.726c-3.313,0-6-2.687-6-6V8.43c0-3.313,2.687-6,6-6s6,2.687,6,6v90.296           C15.461,102.04,12.774,104.726,9.461,104.726"
   id="path119" />
                <path
   fill="#51b13e"
   d="M9.465,104.727c-2.245,0-4.397-1.266-5.425-3.429c-1.42-2.993-0.145-6.571,2.849-7.993l36.18-17.17           L5.902,48.752c-2.667-1.965-3.237-5.721-1.271-8.389c1.965-2.668,5.723-3.238,8.389-1.272l45.242,33.332           c1.699,1.253,2.616,3.304,2.414,5.406c-0.202,2.101-1.493,3.94-3.4,4.845l-45.243,21.473           C11.204,104.541,10.327,104.727,9.465,104.727"
   id="path121" />
                <path
   fill="#cedc21"
   d="M9.466,69.235c-1.842,0-3.659-0.846-4.835-2.441c-1.966-2.668-1.396-6.425,1.272-8.391l37.166-27.381           L6.889,13.851c-2.994-1.422-4.269-5-2.849-7.994c1.422-2.994,5.001-4.269,7.993-2.848l45.243,21.472           c1.907,0.905,3.198,2.746,3.4,4.847s-0.715,4.153-2.414,5.405L13.02,68.065C11.948,68.854,10.701,69.235,9.466,69.235"
   id="path123" />
                <polygon
   fill="#1e5344"
   points="15.461,40.891 15.461,66.266 32.675,53.583  "
   id="polygon125" />
                <rect
   x="3.461"
   y="30.251"
   fill="var(--white)"
   width="12"
   height="29.25"
   id="rect127" />
                <path
   fill="#cedc21"
   d="M15.461,8.43c0-3.313-2.687-6-6-6s-6,2.687-6,6v75.512h12V8.43z"
   id="path129" />
              </g>
              <g
   id="btcpay_text">
                <path
   fill="#1e5344"
   d="M94.827,52.85c3.845,1.092,5.975,4.572,5.975,8.938c0,6.806-4.157,9.975-9.82,9.975H78.044V35.393h11.43           c5.559,0,9.872,2.649,9.872,9.561C99.347,48.434,97.892,51.656,94.827,52.85 M89.527,51.967c4.105,0,7.43-1.455,7.43-7.066           c0-5.662-3.429-7.17-7.586-7.17h-8.884v14.236H89.527z M90.826,69.373c4.156,0,7.481-2.183,7.481-7.585           c0-5.82-3.793-7.586-8.52-7.586h-9.3v15.171H90.826z"
   id="path132" />
                <polygon
   fill="#1e5344"
   points="125.119,35.393 125.119,37.627 115.092,37.627 115.092,71.762 112.648,71.762 112.648,37.627            102.622,37.627 102.622,35.393  "
   id="polygon134" />
                <path
   fill="#1e5344"
   d="M142.212,34.874c6.183,0,11.794,3.117,13.562,10.547h-2.338c-1.662-6.078-6.547-8.312-11.275-8.312           c-8.572,0-13.093,7.014-13.093,16.471c0,9.976,4.521,16.365,13.145,16.365c5.092,0,9.664-2.285,11.431-8.988h2.338           c-1.559,7.742-7.689,11.326-13.769,11.326c-9.716,0-15.534-7.17-15.534-18.703C126.678,42.511,132.809,34.874,142.212,34.874"
   id="path136" />
                <path
   fill="#1e5344"
   d="M174.271,35.393c6.285,0,10.857,4.105,10.857,12.055c0,7.481-4.572,12.002-10.857,12.002h-9.562v12.313           h-2.389v-36.37H174.271z M174.271,57.059c4.623,0,8.416-2.961,8.416-9.664c0-6.701-3.639-9.715-8.416-9.715h-9.562v19.379H174.271z           "
   id="path138" />
                <path
   fill="#1e5344"
   d="M185.545,71.763v-0.312l14.496-36.162h1.092l14.34,36.162v0.312h-2.547l-4.104-10.495h-16.574           l-4.104,10.495H185.545z M200.562,39.602l-7.482,19.379h14.912L200.562,39.602z"
   id="path140" />
                <polygon
   fill="#1e5344"
   points="237.038,35.393 239.635,35.393 239.635,35.756 228.309,56.643 228.309,71.762 225.814,71.762            225.814,56.643 214.436,35.706 214.436,35.393 217.086,35.393 222.021,44.641 227.01,54.253 227.061,54.253 232.1,44.641  "
   id="polygon142" />
              </g>
            <g
   style="font-weight:900;font-size:45.3333px;line-height:1.25;font-family:Roboto;-inkscape-font-specification:'Roboto Heavy'"
   id="text154"
   aria-label="directory"><path
     id="path86"
     style="font-style:normal;font-variant:normal;font-weight:800;font-stretch:normal;font-family:'Open Sans';-inkscape-font-specification:'Open Sans Ultra-Bold';fill:#1e5344;fill-opacity:1"
     d="m 263.25902,70.466199 q -2.67838,0 -4.6927,-1.527343 -1.99219,-1.527342 -3.09896,-4.493486 -1.08464,-2.966144 -1.08464,-6.928381 0,-6.10937 2.45703,-9.562493 2.45703,-3.453123 6.7513,-3.453123 2.10286,0 3.67448,0.841146 1.59375,0.841145 2.89974,2.833331 h 0.17708 q -0.42057,-2.944008 -0.42057,-5.888017 v -6.707026 h 8.72134 v 34.442684 h -6.52994 l -1.85937,-3.165362 h -0.33203 q -2.23568,3.60807 -6.66276,3.60807 z m 3.54166,-6.839839 q 2.08073,0 2.92188,-1.305989 0.86328,-1.305988 0.92968,-4.028643 v -0.686197 q 0,-3.32031 -0.95182,-4.714841 -0.95182,-1.416665 -2.98828,-1.416665 -1.70442,0 -2.65625,1.615884 -0.92968,1.593749 -0.92968,4.559893 0,2.921873 0.95182,4.449215 0.95182,1.527343 2.72265,1.527343 z" /><path
     id="path88"
     style="font-style:normal;font-variant:normal;font-weight:800;font-stretch:normal;font-family:'Open Sans';-inkscape-font-specification:'Open Sans Ultra-Bold';fill:#1e5344;fill-opacity:1"
     d="m 293.29676,70.023491 h -8.65494 v -25.07941 h 8.65494 z m -8.8763,-31.321593 q 0,-1.947915 1.08464,-2.899737 1.08463,-0.951823 3.49739,-0.951823 2.41276,0 3.51953,0.973958 1.10677,0.973958 1.10677,2.877602 0,3.807289 -4.6263,3.807289 -4.58203,0 -4.58203,-3.807289 z" /><path
     id="path90"
     style="font-style:normal;font-variant:normal;font-weight:800;font-stretch:normal;font-family:'Open Sans';-inkscape-font-specification:'Open Sans Ultra-Bold';fill:#1e5344;fill-opacity:1"
     d="m 314.52461,44.501373 q 1.1289,0 2.14713,0.177084 l 0.48698,0.08854 -0.77474,8.167963 q -1.0625,-0.265625 -2.94401,-0.265625 -2.83333,0 -4.11718,1.305989 -1.28386,1.283853 -1.28386,3.718747 v 12.329419 h -8.65494 v -25.07941 h 6.4414 l 1.35026,4.006508 h 0.42058 q 1.08463,-1.992186 3.01041,-3.209633 1.94792,-1.239583 3.91797,-1.239583 z" /><path
     id="path92"
     style="font-style:normal;font-variant:normal;font-weight:800;font-stretch:normal;font-family:'Open Sans';-inkscape-font-specification:'Open Sans Ultra-Bold';fill:#1e5344;fill-opacity:1"
     d="m 332.74204,70.466199 q -6.26432,0 -9.73957,-3.32031 -3.45313,-3.342446 -3.45313,-9.496087 0,-6.35286 3.20964,-9.739577 3.20963,-3.408852 9.16405,-3.408852 5.66666,0 8.74349,2.966144 3.09895,2.944008 3.09895,8.499994 v 3.85156 h -15.47264 q 0.0885,2.102863 1.52734,3.298175 1.46094,1.195311 3.96224,1.195311 2.27994,0 4.18359,-0.420572 1.92578,-0.442708 4.16145,-1.483072 v 6.220048 q -2.03645,1.040363 -4.20572,1.438801 -2.16927,0.398437 -5.17969,0.398437 z M 332.23293,50.38939 q -1.52734,0 -2.56771,0.973958 -1.01823,0.951822 -1.19531,3.010414 h 7.43749 q -0.0443,-1.815103 -1.04036,-2.899737 -0.97396,-1.084635 -2.63411,-1.084635 z" /><path
     id="path94"
     style="font-style:normal;font-variant:normal;font-weight:800;font-stretch:normal;font-family:'Open Sans';-inkscape-font-specification:'Open Sans Ultra-Bold';fill:#1e5344;fill-opacity:1"
     d="m 360.12353,70.466199 q -6.15364,0 -9.34114,-3.32031 -3.16536,-3.32031 -3.16536,-9.540358 0,-6.242183 3.43099,-9.67317 3.43099,-3.430988 9.76171,-3.430988 4.36067,0 8.21223,1.903645 l -2.54557,6.397131 q -1.57161,-0.686198 -2.89973,-1.084635 -1.32813,-0.420572 -2.76693,-0.420572 -2.10286,0 -3.2539,1.638019 -1.15104,1.63802 -1.15104,4.626299 0,6.020829 4.44921,6.020829 3.80729,0 7.30468,-2.21354 v 6.88411 q -3.34244,2.21354 -8.03515,2.21354 z" /><path
     id="path96"
     style="font-style:normal;font-variant:normal;font-weight:800;font-stretch:normal;font-family:'Open Sans';-inkscape-font-specification:'Open Sans Ultra-Bold';fill:#1e5344;fill-opacity:1"
     d="m 385.4243,63.62636 q 1.74869,0 4.18359,-0.863281 v 6.30859 q -1.7487,0.752603 -3.34245,1.062499 -1.57161,0.332031 -3.69661,0.332031 -4.36067,0 -6.28645,-2.124999 -1.92578,-2.147133 -1.92578,-6.574214 V 51.429754 h -3.03255 v -3.519529 l 3.85156,-2.722654 2.23567,-5.268226 h 5.66667 v 5.024736 h 6.15364 v 6.485673 h -6.15364 v 9.761712 q 0,2.434894 2.34635,2.434894 z" /><path
     id="path98"
     style="font-style:normal;font-variant:normal;font-weight:800;font-stretch:normal;font-family:'Open Sans';-inkscape-font-specification:'Open Sans Ultra-Bold';fill:#1e5344;fill-opacity:1"
     d="m 417.98548,57.428448 q 0,6.153641 -3.32032,9.606764 -3.29817,3.430987 -9.25259,3.430987 -5.71094,0 -9.09765,-3.519529 -3.36458,-3.519529 -3.36458,-9.518222 0,-6.131506 3.29817,-9.518223 3.32031,-3.408852 9.29687,-3.408852 3.69661,0 6.52994,1.571614 2.83333,1.571613 4.36068,4.515622 1.54948,2.921873 1.54948,6.839839 z m -16.24739,0 q 0,3.231768 0.86328,4.936194 0.86328,1.682291 2.89974,1.682291 2.01432,0 2.83333,-1.682291 0.84115,-1.704426 0.84115,-4.936194 0,-3.209634 -0.84115,-4.847653 -0.84115,-1.63802 -2.8776,-1.63802 -1.99219,0 -2.85547,1.63802 -0.86328,1.615884 -0.86328,4.847653 z" /><path
     id="path100"
     style="font-style:normal;font-variant:normal;font-weight:800;font-stretch:normal;font-family:'Open Sans';-inkscape-font-specification:'Open Sans Ultra-Bold';fill:#1e5344;fill-opacity:1"
     d="m 438.04015,44.501373 q 1.1289,0 2.14713,0.177084 l 0.48698,0.08854 -0.77474,8.167963 q -1.0625,-0.265625 -2.94401,-0.265625 -2.83333,0 -4.11718,1.305989 -1.28385,1.283853 -1.28385,3.718747 v 12.329419 h -8.65495 v -25.07941 h 6.44141 l 1.35026,4.006508 h 0.42057 q 1.08463,-1.992186 3.01041,-3.209633 1.94792,-1.239583 3.91797,-1.239583 z" /><path
     id="path102"
     style="font-style:normal;font-variant:normal;font-weight:800;font-stretch:normal;font-family:'Open Sans';-inkscape-font-specification:'Open Sans Ultra-Bold';fill:#1e5344;fill-opacity:1"
     d="m 441.11697,44.944081 h 9.11978 l 4.25,14.388011 q 0.3099,1.128906 0.42057,2.722654 h 0.17709 q 0.17708,-1.527342 0.53125,-2.678383 l 4.36067,-14.432282 h 8.83203 L 458.8917,71.61724 q -1.90365,5.091142 -4.69271,7.194005 -2.76692,2.102863 -7.23828,2.102863 -1.72656,0 -3.54166,-0.376302 v -6.795568 q 1.17318,0.265625 2.67838,0.265625 1.15104,0 2.01433,-0.442708 0.86328,-0.442708 1.5052,-1.261718 0.64193,-0.796874 1.3724,-2.634113 z" /></g></svg>
