<?xml version="1.0" encoding="UTF-8" standalone="no"?>
<svg
   xmlns:dc="http://purl.org/dc/elements/1.1/"
   xmlns:cc="http://creativecommons.org/ns#"
   xmlns:rdf="http://www.w3.org/1999/02/22-rdf-syntax-ns#"
   xmlns:svg="http://www.w3.org/2000/svg"
   xmlns="http://www.w3.org/2000/svg"
   xml:space="preserve"
   enable-background="new 0 0 474.506 107.758"
   viewBox="0 0 474.506 107.758"
   height="107.758px"
   width="474.506px"
   y="0px"
   x="0px"
   id="logoimage"
   version="1.1"><metadata
   id="metadata150"><rdf:RDF><cc:Work
       rdf:about=""><dc:format>image/svg+xml</dc:format><dc:type
         rdf:resource="http://purl.org/dc/dcmitype/StillImage" /><dc:title></dc:title></cc:Work></rdf:RDF></metadata><defs
   id="defs148" />
              
              <g
   id="logo">
                <path
   id="path119"
   d="M9.461,104.726c-3.313,0-6-2.687-6-6V8.43c0-3.313,2.687-6,6-6s6,2.687,6,6v90.296           C15.461,102.04,12.774,104.726,9.461,104.726"
   fill="#cedc21" />
                <path
   id="path121"
   d="M9.465,104.727c-2.245,0-4.397-1.266-5.425-3.429c-1.42-2.993-0.145-6.571,2.849-7.993l36.18-17.17           L5.902,48.752c-2.667-1.965-3.237-5.721-1.271-8.389c1.965-2.668,5.723-3.238,8.389-1.272l45.242,33.332           c1.699,1.253,2.616,3.304,2.414,5.406c-0.202,2.101-1.493,3.94-3.4,4.845l-45.243,21.473           C11.204,104.541,10.327,104.727,9.465,104.727"
   fill="#51b13e" />
                <path
   id="path123"
   d="M9.466,69.235c-1.842,0-3.659-0.846-4.835-2.441c-1.966-2.668-1.396-6.425,1.272-8.391l37.166-27.381           L6.889,13.851c-2.994-1.422-4.269-5-2.849-7.994c1.422-2.994,5.001-4.269,7.993-2.848l45.243,21.472           c1.907,0.905,3.198,2.746,3.4,4.847s-0.715,4.153-2.414,5.405L13.02,68.065C11.948,68.854,10.701,69.235,9.466,69.235"
   fill="#cedc21" />
                <polygon
   id="polygon125"
   points="15.461,40.891 15.461,66.266 32.675,53.583  "
   fill="#1e5344" />
                <rect
   id="rect127"
   height="29.25"
   width="12"
   fill="var(--white)"
   y="30.251"
   x="3.461" />
                <path
   id="path129"
   d="M15.461,8.43c0-3.313-2.687-6-6-6s-6,2.687-6,6v75.512h12V8.43z"
   fill="#cedc21" />
              </g>
              <g
   id="btcpay_text">
                <path
   id="path132"
   d="M94.827,52.85c3.845,1.092,5.975,4.572,5.975,8.938c0,6.806-4.157,9.975-9.82,9.975H78.044V35.393h11.43           c5.559,0,9.872,2.649,9.872,9.561C99.347,48.434,97.892,51.656,94.827,52.85 M89.527,51.967c4.105,0,7.43-1.455,7.43-7.066           c0-5.662-3.429-7.17-7.586-7.17h-8.884v14.236H89.527z M90.826,69.373c4.156,0,7.481-2.183,7.481-7.585           c0-5.82-3.793-7.586-8.52-7.586h-9.3v15.171H90.826z"
   fill="#1e5344" />
                <polygon
   id="polygon134"
   points="125.119,35.393 125.119,37.627 115.092,37.627 115.092,71.762 112.648,71.762 112.648,37.627            102.622,37.627 102.622,35.393  "
   fill="#1e5344" />
                <path
   id="path136"
   d="M142.212,34.874c6.183,0,11.794,3.117,13.562,10.547h-2.338c-1.662-6.078-6.547-8.312-11.275-8.312           c-8.572,0-13.093,7.014-13.093,16.471c0,9.976,4.521,16.365,13.145,16.365c5.092,0,9.664-2.285,11.431-8.988h2.338           c-1.559,7.742-7.689,11.326-13.769,11.326c-9.716,0-15.534-7.17-15.534-18.703C126.678,42.511,132.809,34.874,142.212,34.874"
   fill="#1e5344" />
                <path
   id="path138"
   d="M174.271,35.393c6.285,0,10.857,4.105,10.857,12.055c0,7.481-4.572,12.002-10.857,12.002h-9.562v12.313           h-2.389v-36.37H174.271z M174.271,57.059c4.623,0,8.416-2.961,8.416-9.664c0-6.701-3.639-9.715-8.416-9.715h-9.562v19.379H174.271z           "
   fill="#1e5344" />
                <path
   id="path140"
   d="M185.545,71.763v-0.312l14.496-36.162h1.092l14.34,36.162v0.312h-2.547l-4.104-10.495h-16.574           l-4.104,10.495H185.545z M200.562,39.602l-7.482,19.379h14.912L200.562,39.602z"
   fill="#1e5344" />
                <polygon
   id="polygon142"
   points="237.038,35.393 239.635,35.393 239.635,35.756 228.309,56.643 228.309,71.762 225.814,71.762            225.814,56.643 214.436,35.706 214.436,35.393 217.086,35.393 222.021,44.641 227.01,54.253 227.061,54.253 232.1,44.641  "
   fill="#1e5344" />
              </g>
            <text
   id="text154"
   y="70.023491"
   x="252.47908"
   style="font-weight:900;font-size:45.3333px;line-height:1.25;font-family:Roboto;-inkscape-font-specification:'Roboto Heavy'"
   xml:space="preserve"><tspan
     style="fill:#1e5344;fill-opacity:1"
     y="70.023491"
     x="252.47908"
     id="tspan152">directory</tspan></text></svg>
